<svg width="9" height="12" viewBox="0 0 9 12" fill="none" xmlns="http://www.w3.org/2000/svg">
<path d="M8.51734 7.22445C8.46754 7.27554 8.27951 7.494 8.10435 7.67369C7.07746 8.80385 4.39863 10.6537 2.99653 11.2183C2.7836 11.309 2.24526 11.5011 1.95762 11.5134C1.68201 11.5134 1.41928 11.45 1.16857 11.3214C0.856039 11.1417 0.605327 10.8589 0.467951 10.5251C0.379515 10.2934 0.242138 9.60015 0.242138 9.58782C0.104762 8.82939 0.0292053 7.59706 0.0292053 6.23524C0.0292053 4.93772 0.104762 3.7556 0.217239 2.98572C0.230118 2.97339 0.367494 2.1119 0.517749 1.81681C0.793361 1.27772 1.3317 0.942993 1.90783 0.942993H1.95762C2.33283 0.956206 3.12189 1.29094 3.12189 1.30327C4.44843 1.86878 7.06544 3.62787 8.11723 4.79678C8.11723 4.79678 8.41345 5.09716 8.54224 5.28478C8.74315 5.55433 8.84275 5.88818 8.84275 6.22203C8.84275 6.59463 8.73027 6.94169 8.51734 7.22445Z" fill="white"/>
</svg>
