<svg width="9" height="9" viewBox="0 0 9 9" fill="none" xmlns="http://www.w3.org/2000/svg">
<g id="Delete 1" clip-path="url(#clip0_979_2595)">
<g id="delete-1--remove-add-button-buttons-delete-cross-x-mathematics-multiply-math">
<path id="Union" fill-rule="evenodd" clip-rule="evenodd" d="M1.10526 0.180458C0.984012 0.063356 0.821625 -0.0014404 0.65307 2.43017e-05C0.484515 0.001489 0.323279 0.0690976 0.204088 0.188289C0.0848967 0.307479 0.0172881 0.468716 0.0158234 0.637271C0.0143587 0.805826 0.0791551 0.968213 0.196257 1.08946L3.5989 4.4921L0.196257 7.89474C0.134857 7.95405 0.085883 8.02498 0.0521915 8.10341C0.0185 8.18184 0.000766011 8.2662 2.42722e-05 8.35156C-0.000717467 8.43692 0.0155479 8.52157 0.0478713 8.60057C0.0801948 8.67958 0.127929 8.75135 0.188289 8.81171C0.248648 8.87207 0.320424 8.91981 0.399429 8.95213C0.478434 8.98445 0.563085 9.00072 0.648443 8.99998C0.733801 8.99923 0.818157 8.9815 0.896588 8.94781C0.975019 8.91412 1.04596 8.86514 1.10526 8.80374L4.5079 5.4011L7.91054 8.80374C8.03179 8.92085 8.19417 8.98564 8.36273 8.98418C8.53128 8.98271 8.69252 8.9151 8.81171 8.79591C8.9309 8.67672 8.99851 8.51548 8.99998 8.34693C9.00144 8.17838 8.93664 8.01599 8.81954 7.89474L5.4169 4.4921L8.81954 1.08946C8.93664 0.968213 9.00144 0.805826 8.99998 0.637271C8.99851 0.468716 8.9309 0.307479 8.81171 0.188289C8.69252 0.0690976 8.53128 0.001489 8.36273 2.43017e-05C8.19417 -0.0014404 8.03179 0.063356 7.91054 0.180458L4.5079 3.5831L1.10526 0.180458Z" fill="black"/>
</g>
</g>
<defs>
<clipPath id="clip0_979_2595">
<rect width="9" height="9" fill="white"/>
</clipPath>
</defs>
</svg>
