<svg width="24" height="24" viewBox="0 0 24 24" fill="none" xmlns="http://www.w3.org/2000/svg">
<path d="M4.14492 14.4507C3.4402 13.7307 2.90857 12.8598 2.5903 11.9039C2.27204 10.948 2.17548 9.93215 2.30795 8.93339C2.44042 7.93463 2.79843 6.97912 3.35488 6.13922C3.91133 5.29932 4.65162 4.59707 5.51967 4.08565C6.38772 3.57423 7.36078 3.26706 8.36513 3.18741C9.36948 3.10776 10.3788 3.25771 11.3166 3.6259C12.2544 3.9941 13.0961 4.57088 13.778 5.31257C14.4599 6.05426 14.9641 6.9414 15.2523 7.90679H16.9502C17.866 7.90668 18.7576 8.20114 19.4932 8.74666C20.2288 9.29218 20.7695 10.0598 21.0353 10.9362C21.3012 11.8126 21.2781 12.7513 20.9695 13.6135C20.6608 14.4758 20.0831 15.2159 19.3215 15.7246M11.7332 11.7009V20.2378" stroke="black" stroke-width="1.89708" stroke-linecap="round" stroke-linejoin="round"/>
<path d="M15.5273 15.4951L11.7332 11.7009L7.93903 15.4951" stroke="black" stroke-width="1.89708" stroke-linecap="round" stroke-linejoin="round"/>
</svg>
