<svg width="22" height="22" viewBox="0 0 22 22" fill="none" xmlns="http://www.w3.org/2000/svg">
<g id="Image 2">
<g id="Iconly/Light/Image-2">
<g id="Image-2">
<path id="Stroke-1" fill-rule="evenodd" clip-rule="evenodd" d="M14.5321 2.45581H6.82077C4.13624 2.45581 2.45261 4.36165 2.45261 7.05876V14.3338C2.45261 17.0309 4.12911 18.9368 6.82077 18.9368H14.5277C17.2238 18.9368 18.8994 17.0309 18.8994 14.3338V7.05876C18.903 4.36165 17.2265 2.45581 14.5321 2.45581Z" stroke="black" stroke-width="1.78437" stroke-linecap="round" stroke-linejoin="round"/>
<path id="Stroke-3" fill-rule="evenodd" clip-rule="evenodd" d="M9.54146 7.8456C9.54146 8.75632 8.80526 9.49382 7.89616 9.49382C6.98794 9.49382 6.25085 8.75632 6.25085 7.8456C6.25085 6.93489 6.98794 6.19739 7.89616 6.19739C8.80437 6.19828 9.54057 6.93578 9.54146 7.8456Z" stroke="black" stroke-width="1.78437" stroke-linecap="round" stroke-linejoin="round"/>
<path id="Stroke-5" d="M18.9032 13.353C18.0805 12.5047 16.4985 10.791 14.7783 10.791C13.0573 10.791 12.0653 14.571 10.4102 14.571C8.75505 14.571 7.25146 12.8619 5.92523 13.9576C4.59901 15.0524 3.34409 17.2911 3.34409 17.2911" stroke="black" stroke-width="1.78437" stroke-linecap="round" stroke-linejoin="round"/>
</g>
</g>
</g>
</svg>
